<svg xmlns="http://www.w3.org/2000/svg" version="1.1" xmlns:xlink="http://www.w3.org/1999/xlink" xmlns:svgjs="http://svgjs.dev/svgjs" width="1000" height="1000" viewBox="0 0 1000 1000"><rect width="1000" height="1000" fill="#ffffff"></rect><g transform="matrix(0.7,0,0,0.7,150.15409214248018,449.1103399038461)"><svg viewBox="0 0 357 52" data-background-color="#ffffff" preserveAspectRatio="xMidYMid meet" height="145" width="1000" xmlns="http://www.w3.org/2000/svg" xmlns:xlink="http://www.w3.org/1999/xlink"><g id="tight-bounds" transform="matrix(1,0,0,1,-0.07858698670392528,0.071550000000002)"><svg viewBox="0 0 357.1571739793687 51.85689999999999" height="51.85689999999999" width="357.1571739793687"><g><svg viewBox="0 0 357.1571739793687 51.85689999999999" height="51.85689999999999" width="357.1571739793687"><g><svg viewBox="0 0 357.1571739793687 51.85689999999999" height="51.85689999999999" width="357.1571739793687"><g id="textblocktransform"><svg viewBox="0 0 357.1571739793687 51.85689999999999" height="51.85689999999999" width="357.1571739793687" id="textblock"><g><svg viewBox="0 0 357.1571739793687 51.85689999999999" height="51.85689999999999" width="357.1571739793687"><g><svg><g></g><g></g></svg></g><g><svg><g><svg></svg></g><g></g></svg></g><g id="text-0"><svg viewBox="0 0 357.1571739793687 51.85689999999999" height="51.85689999999999" width="357.1571739793687"><g transform="matrix(1,0,0,1,0,9.403449999999996)"><svg width="121.65" viewBox="0.4000000059604645 -31.549999237060547 121.63999938964844 32.04999923706055" height="32.05" data-palette-color="#ff4b4a"><path d="M18.8-31.05L24.5 0 16.15 0 15.2-4.9 9.3-4.9 8.35 0 0.4 0 6.1-31.05 18.8-31.05ZM10.4-10.75L14.25-10.75 12.5-21.85 12.15-21.85 10.4-10.75ZM50.2-16.2L50.2-16.2Q50.2 0 37.4 0L37.4 0 27.1 0 27.1-31.05 37.6-31.05Q44.45-31.05 47.32-27.23 50.2-23.4 50.2-16.2ZM37.25-7.2Q39.9-7.2 40.67-9.08 41.45-10.95 41.45-15.38 41.45-19.8 40.62-21.65 39.8-23.5 37.1-23.5L37.1-23.5 35.6-23.5 35.6-7.2 37.25-7.2ZM55.27-27.8Q58.15-31.55 64.7-31.55 71.25-31.55 74.07-27.85 76.9-24.15 76.9-15.83 76.9-7.5 74-3.5 71.1 0.5 64.6 0.5 58.1 0.5 55.25-3.45 52.4-7.4 52.4-15.73 52.4-24.05 55.27-27.8ZM68.3-15.8Q68.3-20.4 67.57-22.03 66.85-23.65 64.62-23.65 62.4-23.65 61.75-22.03 61.1-20.4 61.1-15.85L61.1-15.85 61.1-14.65Q61.1-9.8 61.82-8.28 62.55-6.75 64.77-6.75 67-6.75 67.65-8.2 68.3-9.65 68.3-14.2L68.3-14.2 68.3-15.8ZM90.99-10.15L90.99-10.15 88.69-10.15 88.69 0 80.29 0 80.29-31.05 90.44-31.05Q95.79-31.05 98.39-28.6 100.99-26.15 100.99-20.55 100.99-14.95 98.54-12.55 96.09-10.15 90.99-10.15ZM91.94-16.9Q92.39-17.75 92.39-19.95 92.39-22.15 91.89-23.05 91.39-23.95 89.89-23.95L89.89-23.95 88.69-23.95 88.69-16.05 90.09-16.05Q91.49-16.05 91.94-16.9ZM122.04-31.05L121.54-23.5 115.74-23.5 115.74 0 107.19 0 107.19-23.5 101.04-23.5 101.54-31.05 122.04-31.05Z" opacity="1" transform="matrix(1,0,0,1,0,0)" fill="#ff4b4a" class="undefined-p-0"></path></svg></g><g><svg xmlns="http://www.w3.org/2000/svg" data-name="Layer 1" viewBox="5.499507904052734 8.847947120666504 88.99723815917969 82.30855560302734" x="133.8931" y="0" height="51.85689999999999" width="56.070973979368645" class="icon-s-0" data-fill-palette-color="accent" id="s-0"><path d="M25.979 65.195a1.5 1.5 0 0 0 0.874-0.281 26.568 26.568 0 0 0 6.391-6.546c1.262 5.094 6.556 6.715 10.992 5.462 10.029-2.554 7.305-16.218 6.142-22.053a1.5 1.5 0 0 0-2.941 0.587C49.083 50.626 49.9 59.292 43.5 60.923c-1.889 0.482-4.615 0.5-6.086-1.03s-1.789-4.383-1.995-6.266c-0.787-7.176 1.345-15.2 5.306-19.975 5.707-6.877 15.17-4.383 20.3-2.284 1.954 0.8 2.617 4.165 2.707 5.392a1.506 1.506 0 0 0 0.348 0.861c2.12 2.524 8.394 4.579 11.067 5.366a2.391 2.391 0 0 1-0.2 0.7h0a1.5 1.5 0 0 0-0.28 0.948 8.565 8.565 0 0 1-4.323 7.959H60.724A4.652 4.652 0 0 0 56.4 55.553a21.976 21.976 0 0 0 0.989 17.515 1.5 1.5 0 0 0 2.62-1.461A19.28 19.28 0 0 1 59.2 56.626a1.633 1.633 0 0 1 1.521-1.038h9.992c0.885-0.036 6.949-2.987 6.965-10.677 0.334-0.62 1.265-4.065-0.626-4.5-3.159-0.84-8.557-2.731-10.393-4.42-0.213-1.585-1.1-6.006-4.5-7.4-20.654-8.608-31 6.784-29.742 25.184a22.5 22.5 0 0 1-7.315 8.7A1.509 1.509 0 0 0 25.979 65.195Z" fill="#000000" data-fill-palette-color="accent"></path><path d="M49.475 91.065a1.552 1.552 0 0 0 1.05 0A76.062 76.062 0 0 0 84.7 65.126a48 48 0 0 0 9.787-27.65c0.291-13.028-5.946-22.807-17.113-26.83C68.84 7.57 57.327 7.99 50 15.471c-7.327-7.483-18.84-7.9-27.378-4.825-11.167 4.023-17.4 13.8-17.113 26.83C6.119 60.35 24.269 81.043 49.475 91.065ZM23.64 13.468c8.066-2.92 19.023-2.363 25.318 5.287a1.492 1.492 0 0 0 2.084 0c6.294-7.65 17.252-8.207 25.318-5.287 9.877 3.558 15.393 12.284 15.131 23.941C90.916 58.968 73.638 78.414 50 88.046 26.381 78.432 9.077 58.957 8.508 37.409 8.247 25.752 13.763 17.026 23.64 13.468Z" fill="#000000" data-fill-palette-color="accent"></path></svg></g><g transform="matrix(1,0,0,1,202.20717397936866,10.153449999999996)"><svg width="154.95" viewBox="0.4000000059604645 -31.049999237060547 154.94000244140625 31.549999237060547" height="31.549999999999997" data-palette-color="#ff4b4a"><path d="M18.8-31.05L24.5 0 16.15 0 15.2-4.9 9.3-4.9 8.35 0 0.4 0 6.1-31.05 18.8-31.05ZM10.4-10.75L14.25-10.75 12.5-21.85 12.15-21.85 10.4-10.75ZM48.3-10.15L48.3-10.15 46-10.15 46 0 37.6 0 37.6-31.05 47.75-31.05Q53.09-31.05 55.7-28.6 58.3-26.15 58.3-20.55 58.3-14.95 55.85-12.55 53.4-10.15 48.3-10.15ZM49.25-16.9Q49.7-17.75 49.7-19.95 49.7-22.15 49.2-23.05 48.7-23.95 47.2-23.95L47.2-23.95 46-23.95 46-16.05 47.4-16.05Q48.8-16.05 49.25-16.9ZM69.54-10.2Q69.54-8.65 70.19-7.9 70.84-7.15 72.32-7.15 73.79-7.15 74.37-7.88 74.94-8.6 74.94-10.25L74.94-10.25 74.94-31.05 83.54-31.05 83.54-9.75Q83.54-4.4 80.62-1.95 77.69 0.5 72.02 0.5 66.34 0.5 63.57-1.93 60.79-4.35 60.79-9.65L60.79-9.65 60.79-31.05 69.54-31.05 69.54-10.2ZM98.64-10.15L98.64-10.15 96.34-10.15 96.34 0 87.94 0 87.94-31.05 98.09-31.05Q103.44-31.05 106.04-28.6 108.64-26.15 108.64-20.55 108.64-14.95 106.19-12.55 103.74-10.15 98.64-10.15ZM99.59-16.9Q100.04-17.75 100.04-19.95 100.04-22.15 99.54-23.05 99.04-23.95 97.54-23.95L97.54-23.95 96.34-23.95 96.34-16.05 97.74-16.05Q99.14-16.05 99.59-16.9ZM121.84-10.15L121.84-10.15 119.54-10.15 119.54 0 111.14 0 111.14-31.05 121.29-31.05Q126.64-31.05 129.24-28.6 131.84-26.15 131.84-20.55 131.84-14.95 129.39-12.55 126.94-10.15 121.84-10.15ZM122.79-16.9Q123.24-17.75 123.24-19.95 123.24-22.15 122.74-23.05 122.24-23.95 120.74-23.95L120.74-23.95 119.54-23.95 119.54-16.05 120.94-16.05Q122.34-16.05 122.79-16.9ZM146.34-31.05L155.34-31.05 147.94-9.6 147.94 0 139.44 0 139.44-9.6 132.14-31.05 141.54-31.05 143.79-20.95 144.19-20.95 146.34-31.05Z" opacity="1" transform="matrix(1,0,0,1,0,0)" fill="#ff4b4a" class="undefined-p-1"></path></svg></g></svg></g></svg></g></svg></g></svg></g><g></g></svg></g><defs></defs></svg><rect width="357.1571739793687" height="51.85689999999999" fill="none" stroke="none" visibility="hidden"></rect></g></svg></g></svg>